<svg width="55" height="55" viewBox="0 0 55 55" fill="none" xmlns="http://www.w3.org/2000/svg">
<g id="carbon:location-filled">
<path id="Vector" d="M27.5 3.4375C22.4876 3.44341 17.6821 5.43722 14.1378 8.98154C10.5935 12.5259 8.59968 17.3313 8.59377 22.3438C8.58777 26.4399 9.92577 30.4249 12.4025 33.6875C12.4025 33.6875 12.9181 34.3664 13.0024 34.4644L27.5 51.5625L42.0046 34.4558C42.0802 34.3647 42.5975 33.6875 42.5975 33.6875L42.5992 33.6823C45.0748 30.4212 46.4121 26.438 46.4063 22.3438C46.4004 17.3313 44.4066 12.5259 40.8622 8.98154C37.3179 5.43722 32.5125 3.44341 27.5 3.4375ZM27.5 29.2188C26.1403 29.2188 24.8111 28.8155 23.6805 28.0601C22.5499 27.3047 21.6687 26.2309 21.1483 24.9747C20.628 23.7185 20.4918 22.3361 20.7571 21.0025C21.0224 19.6689 21.6772 18.4439 22.6387 17.4824C23.6001 16.5209 24.8252 15.8661 26.1588 15.6009C27.4924 15.3356 28.8747 15.4717 30.131 15.9921C31.3872 16.5124 32.4609 17.3936 33.2164 18.5242C33.9718 19.6548 34.375 20.984 34.375 22.3438C34.3727 24.1664 33.6477 25.9138 32.3589 27.2026C31.07 28.4914 29.3227 29.2165 27.5 29.2188Z" fill="#FF9900"/>
</g>
</svg>
