<svg width="70" height="68" viewBox="0 0 70 68" fill="none" xmlns="http://www.w3.org/2000/svg">
<path id="Vector" d="M68.2511 30.9746L54.1668 43.3671L58.3859 61.8175C58.6091 62.782 58.5454 63.7915 58.2027 64.7197C57.86 65.648 57.2535 66.4537 56.459 67.0363C55.6646 67.6189 54.7174 67.9525 53.7359 67.9953C52.7545 68.0381 51.7823 67.7883 50.9409 67.277L34.9797 57.5166L19.0529 67.277C18.2115 67.7883 17.2393 68.0381 16.2578 67.9953C15.2763 67.9525 14.3292 67.6189 13.5347 67.0363C12.7402 66.4537 12.1338 65.648 11.791 64.7197C11.4483 63.7915 11.3846 62.782 11.6079 61.8175L15.8207 43.386L1.73328 30.9746C0.988183 30.3267 0.4494 29.4714 0.184495 28.516C-0.0804088 27.5606 -0.0596415 26.5477 0.244193 25.6041C0.548027 24.6606 1.1214 23.8285 1.89242 23.2122C2.66343 22.5959 3.59776 22.2229 4.57824 22.1398L23.147 20.5183L30.3953 3.08807C30.7738 2.17348 31.4123 1.39224 32.2303 0.842728C33.0483 0.293216 34.0092 0 34.9922 0C35.9751 0 36.9361 0.293216 37.7541 0.842728C38.5721 1.39224 39.2106 2.17348 39.5891 3.08807L46.8592 20.5183L65.4218 22.1398C66.4022 22.2229 67.3366 22.5959 68.1076 23.2122C68.8786 23.8285 69.452 24.6606 69.7558 25.6041C70.0596 26.5477 70.0804 27.5606 69.8155 28.516C69.5506 29.4714 69.0118 30.3267 68.2667 30.9746H68.2511Z" fill="#FF9900"/>
</svg>
