<svg width="59" height="59" viewBox="0 0 59 59" fill="none" xmlns="http://www.w3.org/2000/svg">
<path d="M46.7083 11.375C48.0123 11.375 49.2629 11.893 50.1849 12.8151C51.107 13.7371 51.625 14.9877 51.625 16.2917V50.7083C51.625 52.0123 51.107 53.2629 50.1849 54.1849C49.2629 55.107 48.0123 55.625 46.7083 55.625H12.2917C10.9877 55.625 9.73711 55.107 8.81506 54.1849C7.893 53.2629 7.375 52.0123 7.375 50.7083V16.2917C7.375 14.9877 7.893 13.7371 8.81506 12.8151C9.73711 11.893 10.9877 11.375 12.2917 11.375H46.7083ZM45.4792 49.4792V36.45C45.4792 34.3245 44.6348 32.2861 43.1319 30.7831C41.6289 29.2802 39.5905 28.4358 37.465 28.4358C35.3754 28.4358 32.9417 29.7142 31.7617 31.6317V28.9029H24.9029V49.4792H31.7617V37.3596C31.7617 35.4667 33.2858 33.9179 35.1788 33.9179C36.0915 33.9179 36.9669 34.2805 37.6124 34.926C38.2578 35.5714 38.6204 36.4468 38.6204 37.3596V49.4792H45.4792ZM16.9133 25.0433C18.0087 25.0433 19.0592 24.6082 19.8337 23.8337C20.6082 23.0592 21.0433 22.0087 21.0433 20.9133C21.0433 18.6271 19.1996 16.7587 16.9133 16.7587C15.8115 16.7587 14.7547 17.1965 13.9756 17.9756C13.1965 18.7547 12.7587 19.8115 12.7587 20.9133C12.7587 23.1996 14.6271 25.0433 16.9133 25.0433ZM20.3304 49.4792V28.9029H13.5208V49.4792H20.3304Z" fill="#1976D2"/>
</svg>
