<svg width="40" height="30" viewBox="0 0 40 30" fill="none" xmlns="http://www.w3.org/2000/svg">
<path d="M0.5 5C0.5 3.80653 0.974106 2.66193 1.81802 1.81802C2.66193 0.974106 3.80653 0.5 5 0.5H35C36.1935 0.5 37.3381 0.974106 38.182 1.81802C39.0259 2.66193 39.5 3.80653 39.5 5V7H0.5V5ZM0.5 25V13H39.5V25C39.5 26.1935 39.0259 27.3381 38.182 28.182C37.3381 29.0259 36.1935 29.5 35 29.5H5C3.80653 29.5 2.66193 29.0259 1.81802 28.182C0.974106 27.3381 0.5 26.1935 0.5 25ZM10 17H7.5C6.70435 17 5.94129 17.3161 5.37868 17.8787C4.81607 18.4413 4.5 19.2043 4.5 20V22.5C4.5 23.2957 4.81607 24.0587 5.37868 24.6213C5.94129 25.1839 6.70435 25.5 7.5 25.5H10C10.7956 25.5 11.5587 25.1839 12.1213 24.6213C12.6839 24.0587 13 23.2957 13 22.5V20C13 19.2043 12.6839 18.4413 12.1213 17.8787C11.5587 17.3161 10.7956 17 10 17Z" fill="#FF9900" stroke="black"/>
</svg>
