<svg width="53" height="53" viewBox="0 0 53 53" fill="none" xmlns="http://www.w3.org/2000/svg">
<path d="M48.1532 22.1749H46.3744V22.0833H26.4994V30.9166H38.9797C37.159 36.0587 32.2664 39.75 26.4994 39.75C19.182 39.75 13.2493 33.8173 13.2493 26.5C13.2493 19.1826 19.182 13.25 26.4994 13.25C29.877 13.25 32.9499 14.5242 35.2896 16.6055L41.5359 10.3593C37.5918 6.68348 32.3161 4.41663 26.4994 4.41663C14.3038 4.41663 4.41602 14.3044 4.41602 26.5C4.41602 38.6955 14.3038 48.5833 26.4994 48.5833C38.6949 48.5833 48.5827 38.6955 48.5827 26.5C48.5827 25.0193 48.4303 23.5739 48.1532 22.1749Z" fill="#FFC107"/>
<path d="M6.96289 16.2213L14.2184 21.5423C16.1816 16.6817 20.9361 13.25 26.5 13.25C29.8777 13.25 32.9506 14.5242 35.2903 16.6055L41.5366 10.3593C37.5925 6.68348 32.3168 4.41663 26.5 4.41663C18.0178 4.41663 10.6618 9.2054 6.96289 16.2213Z" fill="#FF3D00"/>
<path d="M26.4995 48.5834C32.2037 48.5834 37.3866 46.4004 41.3053 42.8505L34.4705 37.0669C32.1789 38.8097 29.3786 39.7523 26.4995 39.75C20.7557 39.75 15.8786 36.0875 14.0412 30.9763L6.83984 36.5248C10.4946 43.6764 17.9168 48.5834 26.4995 48.5834Z" fill="#4CAF50"/>
<path d="M48.1538 22.175H46.375V22.0834H26.5V30.9167H38.9804C38.1094 33.364 36.5406 35.5025 34.4677 37.068L34.471 37.0658L41.3058 42.8494C40.8221 43.2889 48.5833 37.5417 48.5833 26.5C48.5833 25.0194 48.431 23.574 48.1538 22.175Z" fill="#1976D2"/>
</svg>
